HIERARCHY
ROOT SimulationBone
{
	OFFSET 0.000000 0.000000 0.000000
	CHANNELS 6 Xposition Yposition Zposition Zrotation Yrotation Xrotation 
	JOINT Hips
	{
		OFFSET 0.000000 0.000000 0.000000
		CHANNELS 6 Xposition Yposition Zposition Zrotation Yrotation Xrotation 
		JOINT RightUpLeg
		{
			OFFSET 0.103458 1.857829 10.548508
			CHANNELS 3 Zrotation Yrotation Xrotation
			JOINT RightLeg
			{
				OFFSET 43.499996 -0.000038 0.000006
				CHANNELS 3 Zrotation Yrotation Xrotation
				JOINT RightFoot
				{
					OFFSET 42.372200 0.000008 -0.000002
					CHANNELS 3 Zrotation Yrotation Xrotation
					JOINT RightToe
					{
						OFFSET 17.299995 -0.000002 0.000004
						CHANNELS 3 Zrotation Yrotation Xrotation
						End Site
						{
							OFFSET 0.000000 0.000000 0.000000
						}
					}
				}
			}
		}
		JOINT LeftUpLeg
		{
			OFFSET 0.103455 1.857822 -10.548502
			CHANNELS 3 Zrotation Yrotation Xrotation
			JOINT LeftLeg
			{
				OFFSET 43.500038 -0.000023 0.000006
				CHANNELS 3 Zrotation Yrotation Xrotation
				JOINT LeftFoot
				{
					OFFSET 42.372261 0.000000 0.000010
					CHANNELS 3 Zrotation Yrotation Xrotation
					JOINT LeftToe
					{
						OFFSET 17.299995 -0.000005 0.000002
						CHANNELS 3 Zrotation Yrotation Xrotation
						End Site
						{
							OFFSET 0.000000 0.000000 0.000000
						}
					}
				}
			}
		}
		JOINT Spine
		{
			OFFSET 6.901965 -2.603733 -0.000004
			CHANNELS 3 Zrotation Yrotation Xrotation
			JOINT Spine1
			{
				OFFSET 12.588106 0.000003 0.000000
				CHANNELS 3 Zrotation Yrotation Xrotation
				JOINT Spine2
				{
					OFFSET 12.343201 0.000003 0.000003
					CHANNELS 3 Zrotation Yrotation Xrotation
					JOINT Neck
					{
						OFFSET 25.832893 -0.000008 0.000002
						CHANNELS 3 Zrotation Yrotation Xrotation
						JOINT Head
						{
							OFFSET 11.766605 0.000004 0.000000
							CHANNELS 3 Zrotation Yrotation Xrotation
							End Site
							{
								OFFSET 0.000000 0.000000 0.000000
							}
						}
					}
					JOINT RightShoulder
					{
						OFFSET 19.745905 -1.480375 6.000105
						CHANNELS 3 Zrotation Yrotation Xrotation
						JOINT RightArm
						{
							OFFSET 11.284126 -0.000015 -0.000029
							CHANNELS 3 Zrotation Yrotation Xrotation
							JOINT RightForeArm
							{
								OFFSET 33.000050 0.000007 0.000040
								CHANNELS 3 Zrotation Yrotation Xrotation
								JOINT RightHand
								{
									OFFSET 25.200010 0.000008 0.000004
									CHANNELS 3 Zrotation Yrotation Xrotation
									End Site
									{
										OFFSET 0.000000 0.000000 0.000000
									}
								}
							}
						}
					}
					JOINT LeftShoulder
					{
						OFFSET 19.746092 -1.480381 -6.000073
						CHANNELS 3 Zrotation Yrotation Xrotation
						JOINT LeftArm
						{
							OFFSET 11.284138 -0.000024 -0.000021
							CHANNELS 3 Zrotation Yrotation Xrotation
							JOINT LeftForeArm
							{
								OFFSET 33.000099 0.000014 0.000014
								CHANNELS 3 Zrotation Yrotation Xrotation
								JOINT LeftHand
								{
									OFFSET 25.199772 0.000145 0.000419
									CHANNELS 3 Zrotation Yrotation Xrotation
									End Site
									{
										OFFSET 0.000000 0.000000 0.000000
									}
								}
							}
						}
					}
				}
			}
		}
	}
}
MOTION
Frames: 7
Frame Time: 0.016667
99.126561 0.000000 -153.306657 180.000000 79.334479 180.000000 -1.946997 91.180794 -0.325254 86.594146 -0.262551 179.480931 167.106725 -8.924512 172.166161 -24.697684 4.006641 -5.593571 80.520280 0.752189 -13.126798 21.454558 0.003111 0.000018 169.755992 -0.212919 -167.507521 -23.723098 -1.730464 7.618263 86.119901 -4.639704 2.725329 21.454550 -0.003083 0.000001 5.605380 0.231741 0.418975 1.199607 0.459446 0.840185 0.881546 0.464363 0.837405 6.337023 -8.561768 3.707175 -25.118357 1.453013 1.818115 -149.736116 -80.646857 -32.222978 11.294989 68.628023 20.924442 -31.520905 -11.374101 1.052080 5.419098 -1.280103 9.199789 -126.938936 82.383089 55.232239 -10.056638 -68.172129 -46.688630 -42.213713 20.978614 -1.909551 6.813134 7.297989 -9.549189 
99.314626 0.000000 -153.344731 180.000000 79.338157 180.000000 -1.944897 91.167153 -0.332435 86.639935 -0.277124 179.660249 166.972307 -9.011247 172.287188 -24.912013 4.018575 -5.550999 80.342400 0.696736 -13.146871 21.454558 0.003115 0.000017 169.798751 -0.296539 -167.435183 -23.778616 -1.713064 7.695595 86.206565 -4.706783 2.652063 21.454552 -0.003090 0.000000 5.616939 0.219105 0.442601 1.222745 0.433841 0.887357 0.904682 0.439038 0.884718 6.400286 -8.743553 3.563415 -25.178747 1.632394 1.560713 -149.515947 -80.579469 -32.448351 11.119461 68.414516 20.742741 -31.540855 -11.348401 1.050785 5.614041 -1.739239 9.080336 -127.665353 82.430126 54.496315 -12.593006 -67.705237 -45.829902 -42.672050 20.954699 -1.920844 6.846845 7.117883 -10.025997 
99.504262 0.000000 -153.378983 180.000000 79.317060 180.000000 -1.940718 91.150429 -0.339339 86.684498 -0.286112 179.817054 166.846768 -9.112006 172.420025 -25.107290 4.007225 -5.510008 80.190238 0.649864 -13.149757 21.454558 0.003118 0.000017 169.834484 -0.390310 -167.343938 -23.840654 -1.707009 7.766239 86.296325 -4.769207 2.577411 21.454553 -0.003092 0.000000 5.628284 0.209156 0.463124 1.245423 0.413650 0.928344 0.927359 0.419102 0.925823 6.464655 -8.936602 3.421288 -25.226559 1.809416 1.304430 -149.359909 -80.522268 -32.608374 10.912718 68.118478 20.920515 -31.604165 -11.385911 1.054532 5.827198 -2.199567 9.018129 -128.487408 82.491894 53.662918 -15.057344 -67.217398 -44.848475 -43.095511 20.880935 -1.928472 6.910796 6.964283 -10.618430 
99.694840 0.000000 -153.409916 180.000000 79.271550 180.000000 -1.934242 91.133087 -0.344975 86.728934 -0.294209 179.950586 166.728981 -9.218441 172.564634 -25.287006 3.982065 -5.472905 80.045963 0.609482 -13.142033 21.454557 0.003119 0.000017 169.869830 -0.489781 -167.247535 -23.899111 -1.705134 7.835842 86.384298 -4.830721 2.502400 21.454552 -0.003092 -0.000000 5.639948 0.200530 0.482558 1.268730 0.396110 0.967163 0.950666 0.401806 0.964751 6.527337 -9.142520 3.276789 -25.263854 1.987577 1.043028 -149.241958 -80.474679 -32.729485 10.701433 67.778155 21.302583 -31.723400 -11.465299 1.062130 6.008508 -2.639492 9.001452 -129.295923 82.562036 52.842690 -17.422415 -66.698939 -43.855026 -43.482157 20.794501 -1.934142 6.977540 6.824581 -11.204089 
99.885728 0.000000 -153.438034 180.000000 79.201995 180.000000 -1.925263 91.117592 -0.348345 86.774318 -0.306116 -179.939917 166.617861 -9.322205 172.720936 -25.454643 3.952562 -5.442067 79.891759 0.573460 -13.130235 21.454557 0.003118 0.000017 169.911488 -0.590502 -167.159741 -23.943868 -1.700288 7.910038 86.465611 -4.895086 2.428055 21.454551 -0.003094 -0.000000 5.652465 0.191859 0.502917 1.293745 0.378453 1.007830 0.975688 0.384399 1.005528 6.585576 -9.362916 3.125926 -25.292766 2.170347 0.770252 -149.136890 -80.436071 -32.837278 10.514916 67.431333 21.736002 -31.911138 -11.565227 1.072465 6.108061 -3.037332 9.019469 -129.975201 82.635014 52.152794 -19.665215 -66.144020 -42.956393 -43.830262 20.732554 -1.940158 7.019256 6.685397 -11.660462 
100.076297 0.000000 -153.463841 180.000000 79.108766 180.000000 -1.913666 91.105331 -0.348830 86.821586 -0.324548 -179.854613 166.511625 -9.417383 172.887432 -25.614878 3.927187 -5.418788 79.716652 0.539906 -13.119884 21.454556 0.003114 0.000017 169.963723 -0.689975 -167.087997 -23.969250 -1.689010 7.991911 86.537769 -4.964395 2.354885 21.454549 -0.003100 0.000001 5.666286 0.182295 0.525688 1.321377 0.358955 1.053312 1.003333 0.365169 1.051129 6.638988 -9.598629 2.966872 -25.318281 2.360889 0.482508 -149.025188 -80.405302 -32.951597 10.379181 67.108632 22.095510 -32.176216 -11.667572 1.084576 6.094799 -3.366650 9.060572 -130.446076 82.706745 51.673399 -21.759772 -65.559378 -42.222268 -44.136026 20.724974 -1.948643 7.010557 6.526497 -11.924959 
100.265916 0.000000 -153.487841 180.000000 78.992234 180.000000 -1.899678 91.093369 -0.347338 86.871122 -0.344282 -179.791228 166.405524 -9.507794 173.057077 -25.777228 3.910469 -5.399837 79.536999 0.507957 -13.112563 21.454557 0.003110 0.000018 170.020825 -0.793511 -167.014381 -23.987455 -1.682534 8.074384 86.607774 -5.034003 2.281339 21.454550 -0.003102 0.000001 5.681538 0.173068 0.550258 1.351873 0.340088 1.102398 1.033841 0.346592 1.100325 6.696531 -9.847373 2.806403 -25.356543 2.561138 0.186881 -148.908092 -80.379298 -33.071260 10.292570 66.814021 22.353945 -32.512488 -11.767107 1.098057 6.012578 -3.582626 9.107379 -130.800902 82.776358 51.311318 -23.654151 -64.989316 -41.586284 -44.386762 20.772661 -1.959322 6.937471 6.302278 -12.174794 
